<?xml version="1.0" encoding="UTF-8" standalone="no"?>
<svg width="180px" height="180px" viewBox="0 0 60 60" version="1.1" xmlns="http://www.w3.org/2000/svg" xmlns:xlink="http://www.w3.org/1999/xlink" xmlns:sketch="http://www.bohemiancoding.com/sketch/ns">
    <!-- Generator: Sketch 3.4.2 (15855) - http://www.bohemiancoding.com/sketch -->
    <title>Fill 18 + Fill 19 + Fill 18</title>
    <desc>Created with Sketch.</desc>
    <defs></defs>
    <g id="Page-1" stroke="none" stroke-width="1" fill="none" fill-rule="evenodd" sketch:type="MSPage">
        <g id="illustration" sketch:type="MSLayerGroup" transform="translate(-77.000000, -159.000000)">
            <g id="Fill-18-+-Fill-19-+-Fill-18" transform="translate(77.000000, 159.000000)" sketch:type="MSShapeGroup">
                <path d="M12.558122,32.17 C12.908122,32.17 13.260122,32.053 13.550122,31.813 L30.219122,18.041 L46.880122,31.804 C47.543122,32.353 48.525122,32.259 49.072122,31.595 C49.621122,30.933 49.527122,29.951 48.863122,29.403 L30.219122,14 L11.565122,29.411 C10.902122,29.959 10.809122,30.941 11.357122,31.604 C11.665122,31.976 12.110122,32.17 12.558122,32.17 L12.558122,32.17 Z M48.076122,39.775 L46.537122,37.47 L44.998122,39.775 L43.644122,39.775 L43.644122,31.657 L40.529122,29.084 L40.529122,42.064 L35.487122,42.064 L35.487122,31.582 L24.943122,31.582 L24.943122,42.064 L19.900122,42.064 L19.900122,29.092 L16.785122,31.666 L16.785122,39.775 L15.431122,39.775 L13.893122,37.47 L12.353122,39.775 L11.000122,39.775 L11.000122,42.061 L12.353122,42.061 L12.353122,45.179 L15.431122,45.179 L15.431122,42.061 L16.785122,42.061 L16.785122,45.179 L43.644122,45.179 L43.644122,42.061 L44.998122,42.061 L44.998122,45.179 L48.076122,45.179 L48.076122,42.061 L49.430122,42.061 L49.430122,39.775 L48.076122,39.775 L48.076122,39.775 Z M27.279122,33.919 L33.150122,33.919 L33.150122,42.065 L27.279122,42.065 L27.279122,33.919 Z" id="Fill-18" fill="#FFFFFF"></path>
                <path d="M59.744,29.873 C59.744,46.37 46.369,59.745 29.872,59.745 C13.372,59.745 0,46.37 0,29.873 C0,13.374 13.372,0 29.872,0 C46.369,0 59.744,13.374 59.744,29.873" id="Fill-19" fill="#F3AF50"></path>
                <path d="M12.558122,31.17 C12.908122,31.17 13.260122,31.053 13.550122,30.813 L30.219122,17.041 L46.880122,30.804 C47.543122,31.353 48.525122,31.259 49.072122,30.595 C49.621122,29.933 49.527122,28.951 48.863122,28.403 L30.219122,13 L11.565122,28.411 C10.902122,28.959 10.809122,29.941 11.357122,30.604 C11.665122,30.976 12.110122,31.17 12.558122,31.17 L12.558122,31.17 Z M48.076122,38.775 L46.537122,36.47 L44.998122,38.775 L43.644122,38.775 L43.644122,30.657 L40.529122,28.084 L40.529122,41.064 L35.487122,41.064 L35.487122,30.582 L24.943122,30.582 L24.943122,41.064 L19.900122,41.064 L19.900122,28.092 L16.785122,30.666 L16.785122,38.775 L15.431122,38.775 L13.893122,36.47 L12.353122,38.775 L11.000122,38.775 L11.000122,41.061 L12.353122,41.061 L12.353122,44.179 L15.431122,44.179 L15.431122,41.061 L16.785122,41.061 L16.785122,44.179 L43.644122,44.179 L43.644122,41.061 L44.998122,41.061 L44.998122,44.179 L48.076122,44.179 L48.076122,41.061 L49.430122,41.061 L49.430122,38.775 L48.076122,38.775 L48.076122,38.775 Z M27.279122,32.919 L33.150122,32.919 L33.150122,41.065 L27.279122,41.065 L27.279122,32.919 Z" id="Fill-18" fill="#FFFFFF"></path>
            </g>
        </g>
    </g>
</svg>