<?xml version="1.0" encoding="UTF-8" standalone="no"?>
<svg width="200px" height="200px" viewBox="0 0 60 60" version="1.1" xmlns="http://www.w3.org/2000/svg" xmlns:xlink="http://www.w3.org/1999/xlink" xmlns:sketch="http://www.bohemiancoding.com/sketch/ns">
    <!-- Generator: Sketch 3.4.2 (15855) - http://www.bohemiancoding.com/sketch -->
    <title>Fill 7 + Fill 8</title>
    <desc>Created with Sketch.</desc>
    <defs></defs>
    <g id="Page-1" stroke="none" stroke-width="1" fill="none" fill-rule="evenodd" sketch:type="MSPage">
        <g id="illustration" sketch:type="MSLayerGroup" transform="translate(-238.000000, 0.000000)">
            <g id="Fill-7-+-Fill-8" transform="translate(238.000000, 0.000000)" sketch:type="MSShapeGroup">
                <path d="M59.899,29.949 C59.899,46.448 46.524,59.822 30.026,59.822 C13.526,59.822 0.153,46.448 0.153,29.949 C0.153,13.453 13.526,0.078 30.026,0.078 C46.524,0.078 59.899,13.453 59.899,29.949" id="Fill-7" fill="#245A68"></path>
                <path d="M35.36,37.804 L33.508,40.091 C35.149,40.483 36.053,41.082 36.175,41.392 C35.983,41.874 33.889,43.068 30.028,43.068 C26.167,43.068 24.073,41.874 23.882,41.392 C24.004,41.082 24.906,40.483 26.548,40.091 L24.696,37.804 C22.615,38.529 21.148,39.734 21.148,41.392 C21.148,44.283 25.615,45.797 30.028,45.797 C34.44,45.797 38.908,44.283 38.908,41.392 C38.908,39.734 37.441,38.531 35.36,37.804 L35.36,37.804 Z M22.331,31.783 L29.675,40.856 C29.761,40.964 29.891,41.025 30.028,41.025 C30.166,41.025 30.296,40.964 30.382,40.856 L37.727,31.783 C37.733,31.773 37.74,31.764 37.747,31.756 C39.279,29.938 40.124,27.63 40.124,25.251 C40.124,19.685 35.595,15.155 30.028,15.155 C24.462,15.155 19.933,19.685 19.933,25.251 C19.933,27.63 20.777,29.938 22.312,31.758 C22.317,31.766 22.324,31.774 22.331,31.783 L22.331,31.783 Z M30.028,20.238 C32.754,20.238 34.964,22.448 34.964,25.174 C34.964,27.899 32.754,30.108 30.028,30.108 C27.302,30.108 25.092,27.899 25.092,25.174 C25.092,22.448 27.302,20.238 30.028,20.238 L30.028,20.238 Z" id="Fill-8" fill="#FFFFFF"></path>
            </g>
        </g>
    </g>
</svg>