<?xml version="1.0" encoding="UTF-8" standalone="no"?>
<svg width="200px" height="200px" viewBox="0 0 60 60" version="1.1" xmlns="http://www.w3.org/2000/svg" xmlns:xlink="http://www.w3.org/1999/xlink" xmlns:sketch="http://www.bohemiancoding.com/sketch/ns">
    <!-- Generator: Sketch 3.4.2 (15855) - http://www.bohemiancoding.com/sketch -->
    <title>Fill 23 + Fill 24</title>
    <desc>Created with Sketch.</desc>
    <defs></defs>
    <g id="Page-1" stroke="none" stroke-width="1" fill="none" fill-rule="evenodd" sketch:type="MSPage">
        <g id="illustration" sketch:type="MSLayerGroup" transform="translate(-238.000000, -159.000000)">
            <g id="Fill-23-+-Fill-24" transform="translate(238.000000, 159.000000)" sketch:type="MSShapeGroup">
                <path d="M59.897,29.914 C59.897,46.413 46.523,59.787 30.025,59.787 C13.527,59.787 0.153,46.413 0.153,29.914 C0.153,13.417 13.527,0.042 30.025,0.042 C46.523,0.042 59.897,13.417 59.897,29.914" id="Fill-23" fill="#DF4D58"></path>
                <path d="M24.044,23.321 L27.518,20.574 C28.247,21.027 29.103,21.293 30.023,21.293 C31.001,21.293 31.909,20.996 32.667,20.49 L36.144,23.321 L40.948,23.321 L34.523,18.089 C34.695,17.598 34.794,17.071 34.794,16.522 C34.794,13.891 32.653,11.75 30.023,11.75 C27.393,11.75 25.252,13.891 25.252,16.522 C25.252,17.128 25.37,17.706 25.577,18.24 L19.151,23.321 L24.044,23.321 L24.044,23.321 Z M30.023,14.785 C30.981,14.785 31.76,15.564 31.76,16.522 C31.76,17.48 30.981,18.259 30.023,18.259 C29.065,18.259 28.286,17.48 28.286,16.522 C28.286,15.564 29.065,14.785 30.023,14.785 L30.023,14.785 Z M44.098,25.218 L15.948,25.218 C15.11,25.218 14.431,25.898 14.431,26.734 L14.431,40.77 C14.431,41.607 15.11,42.287 15.948,42.287 L44.098,42.287 C44.935,42.287 45.615,41.607 45.615,40.77 L45.615,26.734 C45.615,25.898 44.935,25.218 44.098,25.218 L44.098,25.218 Z M17.465,28.252 L42.581,28.252 L42.581,39.253 L17.465,39.253 L17.465,28.252 Z M40.314,33.722 C40.314,33.106 40.15,31.099 38.06,31.099 L35.622,31.099 L35.622,36.595 L38.016,36.595 C39.709,36.595 40.314,35.11 40.314,33.722 L40.314,33.722 Z M36.898,35.489 L36.898,32.205 L37.868,32.205 C38.392,32.205 38.992,32.387 38.992,33.803 C38.992,34.198 38.912,35.489 37.883,35.489 L36.898,35.489 L36.898,35.489 Z M21.978,36.729 C24.123,36.729 24.29,35.366 24.29,34.948 C24.29,33.748 23.303,33.508 22.828,33.393 L21.52,33.071 C21.233,33.009 21.031,32.94 21.031,32.628 C21.031,32.099 21.74,32.072 21.882,32.072 C22.25,32.072 22.866,32.164 22.866,32.782 L22.866,32.878 L24.12,32.878 L24.12,32.782 C24.12,31.443 23.01,30.966 21.971,30.966 C20.625,30.966 19.821,31.617 19.821,32.709 C19.821,33.934 20.711,34.142 21.58,34.346 L22.149,34.479 C22.701,34.604 23.036,34.703 23.036,35.037 C23.036,35.58 22.272,35.622 22.037,35.622 C21.722,35.622 20.986,35.548 20.986,34.866 L20.986,34.772 L19.732,34.772 L19.732,34.866 C19.732,36.032 20.571,36.729 21.978,36.729 L21.978,36.729 Z M27.498,36.729 C29.056,36.729 30.143,35.543 30.143,33.848 C30.143,32.15 29.056,30.966 27.498,30.966 C25.867,30.966 24.854,32.069 24.854,33.848 C24.854,35.624 25.867,36.729 27.498,36.729 L27.498,36.729 Z M27.498,32.116 C28.316,32.116 28.845,32.795 28.845,33.848 C28.845,34.898 28.316,35.578 27.498,35.578 C26.681,35.578 26.152,34.898 26.152,33.848 C26.152,32.795 26.681,32.116 27.498,32.116 L27.498,32.116 Z M34.94,35.444 L32.302,35.444 L32.302,31.099 L31.004,31.099 L31.004,36.595 L34.94,36.595 L34.94,35.444 L34.94,35.444 Z" id="Fill-24" fill="#FFFFFF"></path>
            </g>
        </g>
    </g>
</svg>