<?xml version="1.0" encoding="UTF-8" standalone="no"?>
<svg width="180px" height="180px" viewBox="0 0 61 60" version="1.1" xmlns="http://www.w3.org/2000/svg" xmlns:xlink="http://www.w3.org/1999/xlink" xmlns:sketch="http://www.bohemiancoding.com/sketch/ns">
    <!-- Generator: Sketch 3.4.2 (15855) - http://www.bohemiancoding.com/sketch -->
    <title>Fill 21 + Fill 22</title>
    <desc>Created with Sketch.</desc>
    <defs></defs>
    <g id="Page-1" stroke="none" stroke-width="1" fill="none" fill-rule="evenodd" sketch:type="MSPage">
        <g id="illustration" sketch:type="MSLayerGroup" transform="translate(-158.000000, -159.000000)">
            <g id="Fill-21-+-Fill-22" transform="translate(158.000000, 159.000000)" sketch:type="MSShapeGroup">
                <path d="M60.601,29.914 C60.601,46.413 47.226,59.786 30.727,59.786 C14.227,59.786 0.855,46.413 0.855,29.914 C0.855,13.416 14.227,0.042 30.727,0.042 C47.226,0.042 60.601,13.416 60.601,29.914" id="Fill-21" fill="#8BCED3"></path>
                <path d="M20.03,22.606 C20.03,22.606 20.339,22.642 20.441,22.642 C20.544,22.642 20.852,22.606 20.852,22.606 C21.815,22.443 22.415,21.62 22.642,20.681 C22.893,19.638 22.958,18.246 21.932,17.619 C21.548,17.384 20.882,17.305 20.441,17.305 C20,17.305 19.335,17.384 18.95,17.619 C17.924,18.246 17.989,19.638 18.24,20.681 C18.466,21.62 19.065,22.443 20.03,22.606 L20.03,22.606 Z M23.303,25.613 C23.273,25.026 23.354,24.464 23.53,23.937 C23.182,23.784 22.807,23.677 22.436,23.603 L20.441,26.03 L18.446,23.603 C17.681,23.754 16.898,24.045 16.38,24.59 C15.963,25.026 15.767,25.565 15.798,26.189 L16.091,33.347 C16.095,33.439 16.122,33.526 16.171,33.605 L17.161,35.203 L17.854,42.99 C17.882,43.592 18.457,44.73 20.441,44.73 C22.425,44.73 23.001,43.592 23.026,43.013 L23.72,35.203 L23.93,34.864 C23.758,34.526 23.654,34.148 23.637,33.758 L23.303,25.613 L23.303,25.613 Z M45.012,24.59 C44.492,24.045 43.71,23.754 42.943,23.603 L40.949,26.03 L38.955,23.603 C38.582,23.677 38.207,23.784 37.859,23.937 C38.035,24.469 38.116,25.038 38.088,25.636 L37.754,33.752 C37.737,34.142 37.634,34.52 37.46,34.863 L37.67,35.203 L38.362,42.99 C38.39,43.592 38.965,44.73 40.949,44.73 C42.934,44.73 43.509,43.592 43.535,43.013 L44.229,35.203 L45.221,33.605 C45.269,33.526 45.295,33.439 45.299,33.347 L45.593,26.192 C45.623,25.565 45.428,25.026 45.012,24.59 L45.012,24.59 Z M40.538,22.606 C40.538,22.606 40.847,22.642 40.949,22.642 C41.052,22.642 41.361,22.606 41.361,22.606 C42.324,22.443 42.924,21.62 43.15,20.681 C43.401,19.638 43.467,18.246 42.44,17.619 C42.057,17.384 41.391,17.305 40.949,17.305 C40.509,17.305 39.843,17.384 39.459,17.619 C38.432,18.246 38.498,19.638 38.749,20.681 C38.975,21.62 39.575,22.443 40.538,22.606 L40.538,22.606 Z M30.227,21.455 C30.227,21.455 30.577,21.495 30.695,21.495 C30.813,21.495 31.162,21.455 31.162,21.455 C32.258,21.272 32.94,20.334 33.196,19.266 C33.481,18.08 33.558,16.497 32.39,15.783 C31.954,15.518 31.196,15.428 30.695,15.428 C30.194,15.428 29.436,15.518 29.001,15.783 C27.833,16.497 27.908,18.08 28.193,19.266 C28.45,20.334 29.132,21.272 30.227,21.455 L30.227,21.455 Z M32.962,22.587 L30.695,25.347 L28.428,22.587 C27.557,22.761 26.667,23.091 26.077,23.71 C25.604,24.207 25.382,24.82 25.416,25.526 L25.75,33.666 C25.754,33.769 25.785,33.871 25.84,33.959 L26.968,35.775 L27.753,44.629 C27.785,45.313 28.44,46.606 30.695,46.606 C32.951,46.606 33.605,45.313 33.636,44.655 L34.423,35.775 L35.55,33.959 C35.606,33.871 35.636,33.769 35.641,33.666 L35.974,25.531 C36.01,24.82 35.786,24.207 35.314,23.71 C34.723,23.091 33.834,22.761 32.962,22.587 L32.962,22.587 Z" id="Fill-22" fill="#008A9C"></path>
            </g>
        </g>
    </g>
</svg>